#Unknown ASF file
:ROOT_YZX
:FOOT_3DOF
:FULLY-SPECIFIED
:DEGREES
1123
root -2.4465 17.2744 12.6532 -4.39719 25.1045 -0.612168
lfemur -14.6216 2.27766 -27.3833
ltibia 41.8049
lfoot -17.2047 0 -5.15395
ltoes -2.94786
rfemur -16.418 -9.20063 13.6482
rtibia 77.5172
rfoot 2.59948 0 -5.54954
rtoes -12.8263
lowerback 12.344 1.44618 -3.75252
upperback 2.1607 1.48809 0.795278
thorax -4.7659 0.805865 2.70935
lowerneck -14.2847 -9.03228 -19.795
upperneck 13.8283 -10.681 14.7584
head 8.56039 -4.91053 6.90957
lclavicle -3.45264e-014 -7.25564e-015
lhumerus -37.9407 14.3373 81.8778
lradius 25.6257
lwrist -4.66653
lhand -13.7653 28.2434
lfingers 7.12502
lthumb 12.3554 57.8584
rclavicle -3.45264e-014 -7.25564e-015
rhumerus -38.4698 -10.7676 -74.9366
rradius 35.0648
rwrist -0.752134
rhand -22.5145 14.4146
rfingers 7.12502
rthumb 3.9119 -15.5292
1124
root -2.20944 17.2694 13.0975 -4.33987 25.901 0.685494
lfemur -12.0329 2.0116 -28.9503
ltibia 40.4136
lfoot -18.2637 0 -5.42039
ltoes -4.32596
rfemur -21.3605 -7.4388 12.5893
rtibia 76.6353
rfoot -4.23218 0 -5.41708
rtoes -13.582
lowerback 12.2159 1.01811 -4.6195
upperback 2.07342 0.796667 0.504844
thorax -4.74051 0.477335 3.00915
lowerneck -14.097 -8.98771 -19.4967
upperneck 14.1117 -10.7247 14.6328
head 8.60393 -4.93525 6.81884
lclavicle 5.63803e-014 9.93923e-016
lhumerus -35.5319 14.1381 82.6515
lradius 25.1788
lwrist -5.18795
lhand -13.6302 27.8664
lfingers 7.12502
lthumb 12.4856 57.4734
rclavicle 5.63803e-014 9.93923e-016
rhumerus -39.5689 -11.6655 -75.7956
rradius 33.1058
rwrist -0.116994
rhand -21.2968 12.7523
rfingers 7.12502
rthumb 5.08779 -17.1666
1125
root -1.97322 17.287 13.5243 -4.28215 26.5258 1.77977
lfemur -9.05243 1.08402 -30.3813
ltibia 38.4238
lfoot -18.8246 0 -5.08489
ltoes -3.74557
rfemur -25.2721 -5.31583 12.0194
rtibia 72.4944
rfoot -8.63552 0 -5.86774
rtoes -12.3815
lowerback 12.4242 0.46572 -5.38616
upperback 1.8296 -0.0614706 0.386331
thorax -5.03625 0.0783982 3.4592
lowerneck -15.0303 -9.01173 -20.2317
upperneck 15.6355 -10.7029 15.3534
head 9.37613 -4.88047 7.22999
lclavicle -3.16192e-015 -1.14053e-014
lhumerus -33.808 12.6974 84.0823
lradius 25.8899
lwrist -3.3613
lhand -14.4493 29.7924
lfingers 7.12502
lthumb 11.6958 59.4459
rclavicle -3.16192e-015 -1.14053e-014
rhumerus -40.178 -11.203 -76.9174
rradius 30.0963
rwrist 1.27988
rhand -20.5497 13.4321
rfingers 7.12502
rthumb 5.8091 -16.4682
1126
root -1.74624 17.389 13.9588 -3.88781 27.1589 1.94162
lfemur -5.82599 -0.341957 -30.819
ltibia 34.9333
lfoot -18.5445 0 -4.05035
ltoes -4.18793
rfemur -28.0754 -2.76613 12.8991
rtibia 65.1101
rfoot -10.1063 0 -6.41109
rtoes -13.2793
lowerback 12.1435 -0.178908 -5.62933
upperback 1.61554 -0.922761 0.686041
thorax -5.01125 -0.335995 4.05188
lowerneck -14.5091 -8.71141 -20.3069
upperneck 15.263 -10.4498 15.9216
head 9.14445 -4.73739 7.50114
lclavicle -8.21229e-015 1.72943e-014
lhumerus -32.3236 10.7836 85.5242
lradius 27.5982
lwrist -2.77492
lhand -13.9211 27.6976
lfingers 7.12502
lthumb 12.2052 57.3215
rclavicle -8.21229e-015 1.72943e-014
rhumerus -41.2027 -10.3679 -77.8943
rradius 28.6731
rwrist 3.10591
rhand -18.7945 13.5945
rfingers 7.12502
rthumb 7.50354 -16.2524
1127
root -1.51786 17.5011 14.4283 -3.378 28.2741 2.01791
lfemur -2.02359 -2.38066 -31.252
ltibia 30.6865
lfoot -18.1085 0 -2.65977
ltoes -5.48173
rfemur -29.4882 -1.86091 13.7914
rtibia 54.8717
rfoot -10.8872 0 -5.66597
rtoes -14.9737
lowerback 11.5828 -0.901035 -6.09033
upperback 1.34441 -1.89369 1.09291
thorax -4.84867 -0.803484 4.88259
lowerneck -13.381 -8.52 -19.9703
upperneck 14.5271 -10.4199 16.0038
head 8.67048 -4.74067 7.4825
lclavicle 5.59082e-015 -1.19271e-014
lhumerus -31.1749 6.88791 87.4844
lradius 29.4947
lwrist 0.406486
lhand -14.5891 30.7282
lfingers 7.12502
lthumb 11.561 60.3894
rclavicle 5.59082e-015 -1.19271e-014
rhumerus -42.2865 -8.5514 -79.1179
rradius 27.8278
rwrist 4.42372
rhand -17.5552 13.1455
rfingers 7.12502
rthumb 8.69957 -16.6553
1128
root -1.26489 17.6112 14.8966 -2.68228 29.6443 2.1679
lfemur 1.94414 -2.60248 -31.4596
ltibia 25.9895
lfoot -17.2636 0 -2.85749
ltoes -2.99514
rfemur -29.8995 -2.72486 14.9993
rtibia 43.0653
rfoot -8.79405 0 -3.41809
rtoes -18.2798
lowerback 10.7154 -1.76991 -6.60405
upperback 1.24022 -3.0324 1.61227
thorax -4.274 -1.37584 5.8455
lowerneck -13.4969 -8.65814 -19.9019
upperneck 14.618 -10.662 16.2252
head 8.78087 -4.82783 7.51549
lclavicle 6.26669e-014 1.11319e-014
lhumerus -30.6927 2.78008 89.2078
lradius 33.1268
lwrist 3.08792
lhand -14.3887 29.9881
lfingers 7.12502
lthumb 11.7543 59.6383
rclavicle 6.26669e-014 1.11319e-014
rhumerus -43.1489 -6.58374 -80.1357
rradius 27.738
rwrist 4.44551
rhand -17.1654 14.1585
rfingers 7.12502
rthumb 9.07577 -15.6263
